<?xml version="1.0" standalone="no"?>
<!DOCTYPE svg PUBLIC "-//W3C//DTD SVG 20010904//EN"
 "http://www.w3.org/TR/2001/REC-SVG-20010904/DTD/svg10.dtd">
<svg version="1.0" xmlns="http://www.w3.org/2000/svg"
 width="300.000000pt" height="300.000000pt" viewBox="0 0 300.000000 300.000000"
 preserveAspectRatio="xMidYMid meet">
<metadata>
Created by potrace 1.11, written by Peter Selinger 2001-2013
</metadata>
<g transform="translate(0.000000,300.000000) scale(0.100000,-0.100000)"
fill="#000000" stroke="none">
<path d="M1445 2924 c-165 -29 -332 -117 -446 -234 -81 -83 -161 -225 -189
-335 -19 -74 -22 -230 -6 -297 7 -32 11 -58 8 -58 -3 0 -1 -5 6 -12 7 -7 12
-19 12 -28 0 -23 65 -146 102 -193 17 -23 33 -43 33 -45 1 -1 82 35 181 80
199 91 212 93 337 65 l77 -18 29 27 c16 15 27 34 26 43 -2 9 -4 20 -4 24 -1 5
-12 7 -25 5 -15 -2 -37 8 -61 29 -20 18 -50 35 -65 38 -16 3 -34 13 -41 21 -6
8 -22 14 -35 14 -13 0 -41 7 -63 16 -31 12 -43 24 -51 50 -6 19 -15 34 -20 34
-4 0 -16 23 -26 50 -12 32 -21 47 -28 40 -10 -10 21 -90 36 -90 4 0 8 -4 8
-10 0 -20 -19 -9 -39 23 -11 19 -23 51 -26 72 -2 21 -14 47 -25 57 -27 25 -27
103 0 155 16 31 19 54 16 124 -3 94 -8 109 -37 109 -19 0 -98 -36 -109 -49 -3
-3 -23 -19 -45 -35 l-40 -29 41 44 c23 24 44 51 47 60 7 20 142 124 183 140
16 6 58 12 94 14 36 1 73 5 82 9 11 5 24 0 39 -15 13 -13 30 -24 37 -25 8 -2
20 -11 28 -21 13 -17 13 -17 14 0 0 15 6 17 43 12 23 -4 46 -10 51 -15 4 -4
17 1 27 11 20 20 20 20 38 -2 15 -19 19 -20 32 -7 8 8 21 17 29 20 11 4 7 9
-13 19 -27 12 -27 14 -11 26 10 7 27 13 39 13 27 0 115 -57 115 -75 0 -7 12
-20 26 -30 21 -13 24 -19 13 -26 -8 -5 -23 -6 -34 -2 -18 5 -18 4 -6 -11 18
-22 6 -33 -16 -15 -15 11 -15 10 1 -9 28 -32 1 -28 -32 5 -15 15 -32 27 -38
25 -6 -1 -18 5 -25 14 -12 15 -11 16 8 10 12 -4 31 -2 42 3 14 8 21 8 24 -2 2
-6 7 -9 11 -6 9 8 -52 67 -67 65 -7 -1 -26 -12 -41 -24 -16 -12 -33 -22 -39
-22 -7 0 -7 -4 1 -12 26 -26 10 -30 -16 -5 -32 30 -42 34 -42 13 0 -8 -17 -23
-37 -33 -20 -11 -41 -27 -47 -35 -15 -25 8 -60 60 -87 26 -14 44 -31 44 -41 0
-9 9 -25 20 -35 20 -18 21 -18 18 15 -1 20 3 35 10 38 22 7 43 34 38 48 -9 24
12 64 34 64 16 0 20 -7 20 -34 0 -40 23 -54 43 -26 14 20 14 20 32 0 9 -10 15
-25 12 -33 -3 -8 7 -21 24 -31 16 -9 29 -21 29 -26 0 -18 -41 -31 -78 -25 -32
4 -45 0 -80 -25 -23 -17 -42 -35 -42 -40 0 -13 31 2 50 24 17 21 39 20 47 -1
4 -10 11 -21 17 -25 7 -5 6 -8 -4 -9 -64 -3 -100 -18 -100 -40 0 -16 -5 -20
-20 -16 -35 9 -57 -19 -59 -75 -1 -10 -15 -21 -37 -28 l-36 -12 7 -49 c6 -41
4 -49 -9 -49 -9 0 -16 8 -16 19 0 38 -11 51 -45 51 -19 0 -37 -5 -40 -11 -4
-6 -19 -7 -36 -4 -38 9 -60 -14 -66 -69 -4 -31 -1 -47 12 -59 23 -24 62 -22
70 3 4 11 15 20 26 20 18 0 19 -2 4 -30 -17 -32 -19 -44 -7 -37 14 9 52 -13
52 -30 0 -10 4 -24 8 -31 12 -18 81 -21 98 -4 11 10 25 12 57 6 23 -4 54 -6
69 -5 16 1 41 -7 57 -18 16 -12 43 -24 60 -27 20 -4 31 -13 33 -27 4 -30 49
-58 98 -62 58 -5 68 -17 41 -51 -26 -33 -27 -54 -3 -54 10 0 42 -6 72 -14 116
-29 104 -31 148 27 216 280 195 668 -50 928 -88 93 -204 168 -323 209 -143 49
-301 61 -450 34z m359 -30 c33 -11 2 -24 -32 -15 -18 5 -32 6 -32 1 0 -4 12
-11 26 -14 15 -4 24 -9 22 -11 -3 -3 -27 1 -54 9 -27 8 -61 17 -76 20 -16 4
-28 10 -28 15 0 9 141 5 174 -5z m-291 -15 c13 -15 25 -19 42 -15 21 5 23 3
21 -21 -3 -26 -6 -27 -55 -26 -70 1 -71 2 -71 13 0 6 6 10 13 8 7 -2 12 2 12
7 0 6 -4 11 -10 11 -5 1 -17 2 -25 3 -10 2 -7 6 8 11 12 5 22 14 22 20 0 17
25 11 43 -11z m507 -71 c63 -38 140 -100 140 -114 0 -16 -37 -37 -53 -31 -25
9 -57 -12 -57 -38 0 -14 -2 -25 -4 -25 -2 0 -11 -3 -19 -6 -16 -6 -67 58 -63
79 1 7 6 26 10 44 6 27 2 40 -24 79 -18 25 -45 51 -61 58 -16 7 -27 15 -23 18
6 7 100 -32 154 -64z m170 -178 c10 -6 12 -12 4 -20 -7 -7 -16 -5 -29 10 -14
15 -15 20 -4 20 8 0 21 -5 29 -10z m110 -139 c0 -37 39 -94 40 -58 1 17 25
-41 33 -78 3 -16 4 -24 1 -17 -3 6 -12 12 -19 12 -15 0 -48 47 -41 58 2 4 -2
16 -10 27 -10 13 -14 15 -14 4 0 -12 -2 -12 -10 1 -5 9 -5 19 2 28 8 9 8 16 0
24 -17 17 -15 28 3 22 8 -4 15 -14 15 -23z m38 -168 c5 -61 -32 -63 -43 -2 -6
34 -5 36 17 32 17 -3 24 -12 26 -30z m43 -69 c19 -23 16 -138 -6 -229 -11 -42
-16 -49 -26 -34 -8 11 -14 9 -30 -11 l-21 -25 -24 28 c-13 16 -22 32 -19 37 3
5 1 11 -4 15 -18 11 0 108 25 135 12 14 25 37 29 51 4 15 16 31 28 37 30 15
33 14 48 -4z m-780 -135 c19 -6 39 -18 45 -25 6 -8 20 -13 30 -13 11 1 28 1
39 0 19 -2 19 -2 2 -16 -14 -10 -26 -11 -48 -3 -16 5 -29 14 -29 19 0 5 -9 9
-19 9 -11 0 -21 5 -23 12 -3 7 -19 11 -42 10 -24 -2 -35 1 -31 8 8 13 34 13
76 -1z m29 -59 c0 -5 -4 -10 -9 -10 -6 0 -13 5 -16 10 -3 6 1 10 9 10 9 0 16
-4 16 -10z"/>
<path d="M683 2281 c-198 -128 -360 -314 -458 -526 -41 -88 -82 -223 -92 -304
-9 -72 -10 -274 -1 -328 31 -183 93 -344 190 -487 54 -79 51 -76 148 -175 84
-85 106 -104 205 -172 127 -88 349 -179 495 -203 19 -3 46 -8 60 -12 44 -10
333 -13 395 -3 200 32 321 71 476 151 354 184 601 522 657 898 10 67 7 349 -4
360 -5 5 -9 -34 -9 -103 0 -122 -6 -170 -30 -261 -101 -380 -418 -678 -833
-786 -102 -26 -142 -31 -293 -35 -327 -8 -648 117 -874 342 -80 80 -88 89
-142 169 -64 94 -129 240 -148 332 -48 226 -36 403 37 596 51 131 151 288 237
370 26 25 31 37 31 80 1 28 5 70 9 94 5 23 7 42 6 42 -1 0 -29 -17 -62 -39z"/>
<path d="M1235 1781 c-55 -26 -118 -56 -140 -66 -22 -10 -85 -40 -140 -65 -55
-26 -123 -58 -152 -70 -37 -16 -54 -30 -61 -48 -11 -33 -9 -680 2 -704 5 -10
12 -18 16 -18 4 0 131 -60 282 -134 l275 -134 2 -54 c2 -66 7 -107 13 -113 2
-3 22 -7 44 -10 21 -4 47 -9 57 -11 69 -21 425 11 454 39 6 7 14 57 17 111 3
59 11 103 18 107 9 6 51 13 138 24 8 1 29 5 45 8 17 4 50 9 75 12 25 3 56 8
70 11 14 2 43 7 65 9 64 9 115 25 116 38 1 7 2 203 3 437 1 377 -1 427 -15
441 -9 9 -45 21 -80 28 -57 11 -162 34 -274 61 -22 6 -51 12 -65 15 -56 10
-86 16 -102 21 -10 3 -28 7 -40 10 -13 2 -32 6 -43 8 -219 50 -304 68 -325 72
-14 3 -41 9 -60 14 -60 17 -92 10 -195 -39z m322 -75 c38 -8 81 -17 96 -20 15
-2 62 -12 104 -20 43 -9 87 -18 98 -20 245 -48 483 -100 493 -108 9 -8 12 -98
12 -388 0 -408 2 -395 -55 -404 -61 -9 -111 -17 -140 -20 -16 -2 -50 -7 -75
-11 -25 -3 -56 -8 -70 -10 -14 -2 -45 -6 -70 -10 -25 -4 -56 -8 -70 -10 -113
-16 -190 -27 -215 -31 -16 -3 -46 -7 -65 -9 -19 -3 -54 -8 -77 -11 -26 -4 -48
-2 -56 4 -10 9 -12 119 -11 539 1 290 2 531 3 536 2 10 21 9 98 -7z"/>
<path d="M1528 1476 c-2 -6 -4 -155 -3 -331 0 -297 2 -320 18 -319 9 1 33 2
53 3 l36 1 -4 230 c-1 127 -2 230 -1 230 0 0 8 -21 17 -47 9 -27 46 -126 83
-221 l68 -172 48 2 47 1 1 49 c0 26 0 143 0 258 0 280 0 282 -10 276 -4 -3
-23 -1 -40 4 l-32 9 3 -199 c2 -110 0 -196 -3 -192 -3 4 -16 39 -29 77 -12 39
-45 126 -72 195 -46 117 -70 156 -89 144 -4 -2 -26 0 -48 5 -28 6 -41 5 -43
-3z"/>
<path d="M2039 1375 c-43 -23 -49 -55 -48 -240 2 -229 11 -244 142 -245 74 0
80 2 108 29 21 21 29 39 29 64 0 31 -3 35 -29 39 -35 5 -61 -7 -61 -27 0 -11
-12 -14 -47 -12 l-48 2 -1 157 0 157 47 -1 c38 0 48 -4 52 -19 4 -15 14 -19
46 -19 40 0 41 1 41 36 0 26 -8 43 -29 65 -27 27 -35 29 -103 29 -43 -1 -84
-7 -99 -15z"/>
<path d="M2181 1054 c0 -11 3 -14 6 -6 3 7 2 16 -1 19 -3 4 -6 -2 -5 -13z"/>
</g>
</svg>
